<svg xmlns="http://www.w3.org/2000/svg" width="12" height="16" viewBox="0 0 12 16" shape-rendering="crispEdges">
  <rect x="5" y="0" width="2" height="1" fill="#ff4433"/>
  <rect x="5" y="1" width="1" height="1" fill="#3a7bfd"/>
  <rect x="6" y="1" width="1" height="1" fill="#2b5ed4"/>
  <rect x="4" y="2" width="2" height="1" fill="#3a7bfd"/>
  <rect x="6" y="2" width="2" height="1" fill="#2b5ed4"/>
  <rect x="4" y="3" width="2" height="1" fill="#3a7bfd"/>
  <rect x="6" y="3" width="2" height="1" fill="#2b5ed4"/>
  <rect x="3" y="4" width="4" height="1" fill="#3a7bfd"/>
  <rect x="7" y="4" width="2" height="1" fill="#2b5ed4"/>
  <rect x="3" y="5" width="4" height="1" fill="#3a7bfd"/>
  <rect x="7" y="5" width="2" height="1" fill="#2b5ed4"/>
  <rect x="2" y="6" width="6" height="1" fill="#3a7bfd"/>
  <rect x="8" y="6" width="2" height="1" fill="#2b5ed4"/>
  <rect x="2" y="7" width="6" height="1" fill="#3a7bfd"/>
  <rect x="8" y="7" width="2" height="1" fill="#2b5ed4"/>
  <rect x="1" y="8" width="8" height="1" fill="#3a7bfd"/>
  <rect x="9" y="8" width="2" height="1" fill="#2b5ed4"/>
  <rect x="0" y="9" width="10" height="1" fill="#3a7bfd"/>
  <rect x="10" y="9" width="2" height="1" fill="#2b5ed4"/>
  <rect x="1" y="10" width="2" height="1" fill="#f2f3f7"/>
  <rect x="3" y="10" width="1" height="1" fill="#12141a"/>
  <rect x="4" y="10" width="4" height="1" fill="#f2f3f7"/>
  <rect x="8" y="10" width="1" height="1" fill="#12141a"/>
  <rect x="9" y="10" width="1" height="1" fill="#f2f3f7"/>
  <rect x="10" y="10" width="1" height="1" fill="#c2c7d4"/>
  <rect x="1" y="11" width="4" height="1" fill="#f2f3f7"/>
  <rect x="5" y="11" width="2" height="1" fill="#e8b596"/>
  <rect x="7" y="11" width="3" height="1" fill="#f2f3f7"/>
  <rect x="10" y="11" width="1" height="1" fill="#c2c7d4"/>
  <rect x="1" y="12" width="4" height="1" fill="#f2f3f7"/>
  <rect x="5" y="12" width="2" height="1" fill="#e8b596"/>
  <rect x="7" y="12" width="2" height="1" fill="#f2f3f7"/>
  <rect x="9" y="12" width="2" height="1" fill="#c2c7d4"/>
  <rect x="1" y="13" width="8" height="1" fill="#f2f3f7"/>
  <rect x="9" y="13" width="2" height="1" fill="#c2c7d4"/>
  <rect x="2" y="14" width="6" height="1" fill="#f2f3f7"/>
  <rect x="8" y="14" width="2" height="1" fill="#c2c7d4"/>
  <rect x="3" y="15" width="4" height="1" fill="#f2f3f7"/>
  <rect x="7" y="15" width="2" height="1" fill="#c2c7d4"/>
</svg>
